<svg width="40" height="40" viewBox="0 0 40 40" fill="none" xmlns="http://www.w3.org/2000/svg">
  <!-- Background (Amber) -->
  <rect width="40" height="40" rx="12" fill="#F59E0B" />

  <!-- Open Book -->
  <path d="M10 14C10 12.9 10.9 12 12 12H19C20.1 12 21 12.9 21 14V28C21 26.9 20.1 26 19 26H12C10.9 26 10 26.9 10 28V14Z" fill="white" fillOpacity="0.95"/>
  <path d="M30 14C30 12.9 29.1 12 28 12H21C19.9 12 19 12.9 19 14V28C19 26.9 19.9 26 21 26H28C29.1 26 30 26.9 30 28V14Z" fill="white" fillOpacity="0.95"/>

  <!-- Crescent -->
  <path d="M25 10C22 10 20 12 20 15C20 18 22 20 25 20C26.5 20 27.8 19.4 28.8 18.5C27.5 20.8 25.2 22 22.5 22C18.9 22 16 19.1 16 15.5C16 12.5 18.2 10 21.2 9.3C22.2 10 23.5 10 25 10Z" fill="#1F2937"/>
</svg>